<svg id="logo_my903com" xmlns="http://www.w3.org/2000/svg" width="60" height="67.504" viewBox="0 0 60 67.504">
  <path id="Path_100" data-name="Path 100" d="M1555.882,1648.657a7.35,7.35,0,0,0-1.571-.187,6.655,6.655,0,0,0-4.823,1.952,6.288,6.288,0,0,0-2.011,4.768,6.574,6.574,0,0,0,.881,3.306,5.7,5.7,0,0,1-.3-1.039c-.439-2.267.784-4.016,2.629-5.31,1.154-.822,2.356-.816,3.639-1.721A5.339,5.339,0,0,0,1555.882,1648.657Z" transform="translate(-1524.975 -1627.151)" fill="#040505"/>
  <path id="Path_101" data-name="Path 101" d="M1566.358,1669.622a1.691,1.691,0,0,0-1.3.554,2.307,2.307,0,0,0-.5,1.617,2.382,2.382,0,0,0,.433,1.449,1.613,1.613,0,0,0,1.4.584,1.444,1.444,0,0,0,1.327-.663,2.8,2.8,0,0,0,.414-1.522,2.154,2.154,0,0,0-.475-1.463A1.618,1.618,0,0,0,1566.358,1669.622Z" transform="translate(-1524.975 -1627.151)" fill="#040505"/>
  <path id="Path_102" data-name="Path 102" d="M1539.366,1648.471a3.048,3.048,0,0,0-2.884,1.711,3.38,3.38,0,0,0-.454,1.71,3.258,3.258,0,0,0,.454,1.7,3.045,3.045,0,0,0,2.9,1.694,3.156,3.156,0,0,0,2.361-1,3.47,3.47,0,0,0,.968-2.408,3.431,3.431,0,0,0-.993-2.4A3.2,3.2,0,0,0,1539.366,1648.471Z" transform="translate(-1524.975 -1627.151)" fill="#040505"/>
  <path id="Path_103" data-name="Path 103" d="M1546.668,1669.847a.934.934,0,0,0-.734.31,1.234,1.234,0,0,0-.27.825,1.178,1.178,0,0,0,.24.781.916.916,0,0,0,.758.29,1.086,1.086,0,0,0,.683-.249,1.047,1.047,0,0,0,.312-.859,1.11,1.11,0,0,0-.282-.828A.985.985,0,0,0,1546.668,1669.847Z" transform="translate(-1524.975 -1627.151)" fill="#040505"/>
  <path id="Path_104" data-name="Path 104" d="M1550.72,1669.847a.839.839,0,0,0-.8.525,3.539,3.539,0,0,0-.255,1.538,3.877,3.877,0,0,0,.161,1.226.9.9,0,0,0,.851.71.9.9,0,0,0,.777-.432,3.187,3.187,0,0,0,.288-1.618,3.937,3.937,0,0,0-.212-1.4A.8.8,0,0,0,1550.72,1669.847Z" transform="translate(-1524.975 -1627.151)" fill="#040505"/>
  <path id="Path_105" data-name="Path 105" d="M1569.378,1656.175a12.53,12.53,0,0,0-1.677-.193v-3.134a8.351,8.351,0,0,0,1.477-.117,1.905,1.905,0,0,0,1.7-2.11,2.193,2.193,0,0,0-.559-1.494,1.826,1.826,0,0,0-1.412-.657,1.614,1.614,0,0,0-1.618,1.135,4.045,4.045,0,0,0-.236.8h-3.463a10.062,10.062,0,0,1,1.208,4.785,10.3,10.3,0,0,1-.709,3.83h2a3.4,3.4,0,0,0,.943,2.051,2.983,2.983,0,0,0,2.087.857,2.643,2.643,0,0,0,1.963-.792,2.759,2.759,0,0,0,.768-2.006,2.883,2.883,0,0,0-.713-1.934A3.246,3.246,0,0,0,1569.378,1656.175Z" transform="translate(-1524.975 -1627.151)" fill="#040505"/>
  <path id="Path_106" data-name="Path 106" d="M1558.213,1657.591c-1.273,2.888-4.657,4.8-7.467,3.356.046.028.086.06.133.087a6.8,6.8,0,0,0,3.432.893,6.618,6.618,0,0,0,4.791-1.958,6.533,6.533,0,0,0,2.015-4.779,6.463,6.463,0,0,0-.914-3.371C1559.525,1653.662,1559.2,1655.337,1558.213,1657.591Z" transform="translate(-1524.975 -1627.151)" fill="#040505"/>
  <path id="Path_107" data-name="Path 107" d="M1582.325,1644.838a29.987,29.987,0,0,0-55.378,1.647,30.923,30.923,0,0,0-.966,3.022,29.892,29.892,0,0,0,18.354,35.656l1.837.625a4.775,4.775,0,0,1,3.144,3.528,4.911,4.911,0,0,1-.213,2.673,4.486,4.486,0,0,1-1.219,1.769c-.366.316-.749.594-1.11.9a42.245,42.245,0,0,0,35.015-24.066l.041-.094s.486-1.055.516-1.126c0-.007.659-1.588.659-1.588l-.006.01c0-.01.006-.015.006-.02A29.786,29.786,0,0,0,1582.325,1644.838Zm-42.84,29.46h-.677v-3.04c0-.107,0-.28.009-.523s.01-.5.01-.78l-1.477,4.343h-.689l-1.478-4.343v.155c0,.131.007.319.015.578s.005.448.005.57v3.04h-.677v-5.151h1.011l1.471,4.357,1.473-4.357h1Zm3.279-2.08v2.08h-.7v-2.08l-1.963-3.071h.824l1.488,2.469,1.477-2.469h.829Zm5.36,1.029a1.6,1.6,0,0,1-1.556,1.181,1.52,1.52,0,0,1-1.123-.387,1.344,1.344,0,0,1-.38-.97h.637a.807.807,0,0,0,.4.728.913.913,0,0,0,.434.1.964.964,0,0,0,.77-.378,3.109,3.109,0,0,0,.457-1.523,1.172,1.172,0,0,1-.522.468,1.675,1.675,0,0,1-.667.135,1.47,1.47,0,0,1-1.147-.455,1.626,1.626,0,0,1-.418-1.159,1.863,1.863,0,0,1,.414-1.2,1.485,1.485,0,0,1,1.23-.52,1.51,1.51,0,0,1,1.512.991,3.4,3.4,0,0,1,.229,1.356A4.473,4.473,0,0,1,1548.124,1673.247Zm4,.216a1.487,1.487,0,0,1-1.436.965,1.442,1.442,0,0,1-1.343-.788,3.652,3.652,0,0,1-.368-1.761,4.332,4.332,0,0,1,.219-1.467,1.51,1.51,0,0,1,1.5-1.145,1.492,1.492,0,0,1,1.407.805,3.633,3.633,0,0,1,.333,1.7A4.03,4.03,0,0,1,1552.12,1673.463Zm3.816.512a1.886,1.886,0,0,1-1.342.453,1.564,1.564,0,0,1-1.287-.492,1.83,1.83,0,0,1-.4-1.192h.657a1.594,1.594,0,0,0,.178.7.96.96,0,0,0,.888.4,1.159,1.159,0,0,0,.793-.265.875.875,0,0,0,.294-.681.815.815,0,0,0-.312-.728,1.58,1.58,0,0,0-.875-.2h-.131c-.041,0-.082.008-.126.01v-.559c.064.009.118.011.16.015s.1,0,.148,0a1.325,1.325,0,0,0,.581-.114.7.7,0,0,0,.4-.693.693.693,0,0,0-.257-.578.992.992,0,0,0-.619-.2.913.913,0,0,0-.863.416,1.493,1.493,0,0,0-.146.661h-.633a1.877,1.877,0,0,1,.222-.955,1.4,1.4,0,0,1,1.351-.7,1.841,1.841,0,0,1,1.182.343,1.21,1.21,0,0,1,.416.99,1.1,1.1,0,0,1-.249.746,1.006,1.006,0,0,1-.4.287,1.049,1.049,0,0,1,.627.413,1.259,1.259,0,0,1,.22.758A1.557,1.557,0,0,1,1555.936,1673.975Zm1.9.323h-.728v-.774h.728Zm4.771-.537a2.106,2.106,0,0,1-1.636.667,2.133,2.133,0,0,1-1.486-.551,3.349,3.349,0,0,1-.2-4.076,2.168,2.168,0,0,1,1.775-.794,2.072,2.072,0,0,1,1.5.511,1.837,1.837,0,0,1,.6,1.172h-.686a1.392,1.392,0,0,0-.451-.78,1.412,1.412,0,0,0-.951-.287,1.518,1.518,0,0,0-1.2.532,2.458,2.458,0,0,0-.458,1.635,2.43,2.43,0,0,0,.413,1.458,1.44,1.44,0,0,0,1.233.558,1.3,1.3,0,0,0,1.15-.592,2.209,2.209,0,0,0,.312-.816h.681A2.3,2.3,0,0,1,1562.606,1673.761Zm5.658-.217a2.313,2.313,0,0,1-1.955.9,2.35,2.35,0,0,1-1.869-.78,3.323,3.323,0,0,1-.088-3.7,2.241,2.241,0,0,1,1.976-.956,2.34,2.34,0,0,1,2.01.875,2.844,2.844,0,0,1,.514,1.751A3,3,0,0,1,1568.264,1673.544Zm6.352.754h-.673v-3.04c0-.107.005-.28.011-.523s.013-.5.013-.78l-1.481,4.343h-.69l-1.477-4.343v.155c0,.131,0,.319.011.578s.01.448.01.57v3.04h-.674v-5.151h1.006l1.478,4.357,1.466-4.357h1Zm-.828-10.585a6.1,6.1,0,0,1-4.575,1.9,6.6,6.6,0,0,1-4.181-1.412,6.393,6.393,0,0,1-2.207-2.924,11.175,11.175,0,0,1-1.111,1.292,10.1,10.1,0,0,1-7.4,3.044,10.267,10.267,0,0,1-7.422-3.005,9.887,9.887,0,0,1-2.81-4.926c-.167.262-.313.505-.5.785l-4.469,6.823h-4.239l4.47-6.823-1.03.049a5.47,5.47,0,0,1-4.365-1.944,6.674,6.674,0,0,1-1.606-4.559,7.1,7.1,0,0,1,1.951-5.091,6.949,6.949,0,0,1,10.03,0,7.3,7.3,0,0,1,1.465,2.157,9.9,9.9,0,0,1,3.241-2.894,10.647,10.647,0,0,1,5.253-1.4,10.361,10.361,0,0,1,3.237.531,5.534,5.534,0,0,1,1.16-1.3c1.722-1.387,3.275-1.239,5.061-2.541,1.612-1.169,2.16-2.24,3.644-3.56,1.186-1.055,2.93-2.761,3.147-2.59.274.237-2.1,2.568-3.031,4.444-.52,1.06-.61,1.757-1.126,2.819-1.22,2.534-2.878,3.581-4.33,5.621a10.38,10.38,0,0,1,1.344,1.787c.009.016.015.032.023.047a7.221,7.221,0,0,1,.143-.86,5.5,5.5,0,0,1,2.026-3.161,5.56,5.56,0,0,1,3.563-1.239,5.128,5.128,0,0,1,3.871,1.61,5.5,5.5,0,0,1,1.55,3.914,4.718,4.718,0,0,1-.21,1.408,3.634,3.634,0,0,1-1.271,1.91,5.971,5.971,0,0,1-1.006.608v.018l.951.363a4.5,4.5,0,0,1,2.5,4.443A6.449,6.449,0,0,1,1573.788,1663.713Z" transform="translate(-1524.975 -1627.151)" fill="#040505"/>
</svg>
